<?xml version="1.0" standalone="no"?>
<!DOCTYPE svg PUBLIC "-//W3C//DTD SVG 20010904//EN"
 "http://www.w3.org/TR/2001/REC-SVG-20010904/DTD/svg10.dtd">
<svg version="1.0" xmlns="http://www.w3.org/2000/svg"
 width="864.000000pt" height="767.000000pt" viewBox="0 0 864.000000 767.000000"
 preserveAspectRatio="xMidYMid meet">

<g transform="translate(0.000000,767.000000) scale(0.100000,-0.100000)"
fill="#000000" stroke="none">
<path d="M2790 6140 c0 -6 -93 -10 -260 -10 l-260 0 2 -502 3 -503 358 -3 357
-2 0 -520 0 -520 -420 0 -420 0 0 -350 0 -350 420 0 420 0 0 -503 0 -504 -152
-6 c-83 -4 -189 -7 -235 -7 l-83 0 0 290 0 290 -545 0 -545 0 0 -795 0 -795
1870 0 1870 0 0 504 0 503 -37 7 c-21 3 -104 6 -185 6 l-148 0 0 500 0 500 63
0 c89 0 221 -19 286 -41 160 -56 233 -147 266 -333 13 -75 15 -210 15 -862 l0
-774 895 0 895 0 0 505 0 505 -64 0 -64 0 -4 323 c-4 287 -7 330 -26 398 -52
189 -155 321 -312 397 -47 23 -116 49 -155 58 -38 9 -76 18 -82 20 -7 2 -13
17 -13 33 0 27 8 34 91 77 49 27 119 72 155 102 173 143 303 383 361 668 14
71 18 137 18 329 0 210 -3 254 -23 353 -118 584 -498 902 -1187 992 -44 6
-159 15 -255 20 -239 13 -2870 13 -2870 0z m1600 -735 l0 -505 -477 2 -478 3
-3 490 c-1 270 0 496 3 503 3 9 109 12 480 12 l475 0 0 -505z m837 -304 c60
-28 117 -90 144 -157 21 -54 23 -79 27 -277 6 -311 -20 -405 -128 -478 -67
-45 -103 -52 -292 -56 l-178 -5 0 496 0 496 193 0 c167 0 197 -3 234 -19z
m-837 -1881 l0 -511 -217 -489 -216 -490 -264 0 -264 0 7 23 c3 12 74 229 155
483 82 253 149 466 149 472 0 9 -44 12 -155 12 l-155 0 0 498 c0 274 3 502 7
505 3 4 219 7 480 7 l473 0 0 -510z"/>
</g>
</svg>
